<?xml version="1.0" encoding="utf-8"?>
<!-- Generator: Adobe Illustrator 21.0.2, SVG Export Plug-In . SVG Version: 6.00 Build 0)  -->
<svg version="1.1" id="Layer_1" xmlns="http://www.w3.org/2000/svg" xmlns:xlink="http://www.w3.org/1999/xlink" x="0px" y="0px"
	 viewBox="0 0 200 200" style="enable-background:new 0 0 200 200;" xml:space="preserve">
<style type="text/css">
	.st0{clip-path:url(#SVGID_2_);}
	.st1{clip-path:url(#SVGID_4_);}
	.st2{clip-path:url(#SVGID_4_);fill:#FFFFFF;}
</style>
<g id="Artwork_1">
	<g>
		<defs>
			<rect id="SVGID_1_" y="0" width="200" height="200"/>
		</defs>
		<clipPath id="SVGID_2_">
			<use xlink:href="#SVGID_1_"  style="overflow:visible;"/>
		</clipPath>
		<g class="st0">
			<defs>
				<rect id="SVGID_3_" y="0" width="200" height="200"/>
			</defs>
			<clipPath id="SVGID_4_">
				<use xlink:href="#SVGID_3_"  style="overflow:visible;"/>
			</clipPath>
			<path class="st1" d="M189,200c6.1,0,11-4.9,11-11V11c0-6.1-4.9-11-11-11H11C4.9,0,0,4.9,0,11V189c0,6.1,4.9,11,11,11H189z"/>
			<path class="st2" d="M138,200v-77.4h26l3.9-30.2H138V73.1c0-8.7,2.4-14.7,15-14.7l16,0v-27c-2.8-0.4-12.3-1.2-23.3-1.2
				c-23,0-38.8,14.1-38.8,39.9v22.3H80.8v30.2h26.1V200H138z"/>
		</g>
	</g>
</g>
</svg>
