<svg id="Layer_1" data-name="Layer 1" xmlns="http://www.w3.org/2000/svg" viewBox="0 0 154.17 154.19"><defs><style>.cls-1{fill:#fff;}.cls-2{fill:#cfcfce;}.cls-3{fill:#0465a5;}.cls-4{fill:#0365a5;}.cls-5{fill:#5898c2;}.cls-6{fill:#5fa3d1;}</style></defs><title>flame</title><path class="cls-1" d="M81.12,157.91q0-37.43,0-74.85c0-1.6.26-2,1.94-2q75.09.09,150.18,0c1.84,0,2,.51,2,2.13q-.07,75,0,149.94c0,1.67-.27,2.11-2.06,2.11q-75.09-.1-150.18,0c-1.72,0-1.92-.45-1.92-2Q81.17,195.58,81.12,157.91Z" transform="translate(-81.08 -81.06)"/><path class="cls-2" d="M230.88,157.73A73.2,73.2,0,1,1,157.79,85,73.12,73.12,0,0,1,230.88,157.73Z" transform="translate(-81.08 -81.06)"/><path class="cls-3" d="M157.6,92.08a65.85,65.85,0,1,1-66,66A65.79,65.79,0,0,1,157.6,92.08Z" transform="translate(-81.08 -81.06)"/><path class="cls-1" d="M166.11,94c25.67,2.6,48.79,23.47,54.62,49.3a64.62,64.62,0,0,1-50.11,77.84,71,71,0,0,1-17.89,1.09c-.85,0-1.58-.13-2-1-1.31-1.78-1.34-3.95-1.48-6-1.1-16.19,4.8-29.49,16.92-40.11,5-4.36,10.73-7.79,15.3-12.66,4.25-4.54,7.94-9.49,9.55-15.57,2.57-9.74-.14-18.28-6.62-25.77-.68-.78-1.47-1.46-2.14-2.25a19.93,19.93,0,0,1-2.55-4,33.85,33.85,0,0,0-7.15-9.12,41.42,41.42,0,0,0-6.56-10,2.19,2.19,0,0,1-.56-1.28C165.48,94.15,165.64,93.88,166.11,94Z" transform="translate(-81.08 -81.06)"/><path class="cls-1" d="M150.14,221.32c-.74,1-1.77.45-2.59.31A64.25,64.25,0,0,1,93.8,168c-5.51-34.95,17.38-65.45,49.26-72.89a71,71,0,0,1,21-1.37,1.92,1.92,0,0,1,1,1c2,9.17-.15,17.6-4.81,25.49-3.76,6.37-9,11.32-15,15.57s-11.6,9-15.73,15.23c-7.16,10.84-7.6,22.06-2.33,33.71a54.05,54.05,0,0,0,7,11.12,14.83,14.83,0,0,1,2.54,3.75A55.18,55.18,0,0,0,143.9,210a59.08,59.08,0,0,0,5.81,10A2,2,0,0,1,150.14,221.32Z" transform="translate(-81.08 -81.06)"/><path class="cls-4" d="M150.14,221.32a39.4,39.4,0,0,1-6.59-11.08c-3.89-9.19-3.09-18.4.16-27.51C147.16,173,154,165.93,162,159.87c5.44-4.1,10.69-8.39,14.75-13.91s6.85-11.87,6.48-19.11a39.61,39.61,0,0,0-.93-5.66c-.18-.91-.68-1.85.13-2.72,8.67,7.47,13.3,20.61,7.85,32.47-3.82,8.32-10.13,14.46-17.37,19.71-7.81,5.65-14.57,12.19-18.78,21a43.9,43.9,0,0,0-3.49,28.43,8.33,8.33,0,0,1,.07,1.19Z" transform="translate(-81.08 -81.06)"/><path class="cls-5" d="M164.59,94.61,164,93.7c.71,0,1.46-.32,2.08.3l-.51.58C165.27,94.82,164.93,94.58,164.59,94.61Z" transform="translate(-81.08 -81.06)"/><path class="cls-6" d="M182.43,118.48c.2,2.69,1.3,5.21,1.44,7.94.46,9.13-3.41,16.51-9.19,23.13-4.49,5.15-10.14,9-15.38,13.24-8.91,7.28-15.16,16.29-17.13,27.87a41.18,41.18,0,0,0,1.15,18.17,13,13,0,0,1,.24,1.4A43.34,43.34,0,0,1,136,199.51c-.59-1.15-1.42-2.09-2.09-3.17-6-12.56-4.22-24.32,3.62-35.49a55.6,55.6,0,0,1,13.79-13.19c6.38-4.52,12.17-9.59,16.17-16.45a36.2,36.2,0,0,0,5.21-22.45c-.11-1-.66-2.2.15-3.23,3.3,2.46,5.44,5.85,7.45,9.34C181,116.08,181.72,117.28,182.43,118.48Z" transform="translate(-81.08 -81.06)"/><path class="cls-4" d="M172.85,105.53c2.23,12-1.31,22.27-8.73,31.59-4.41,5.53-10.3,9.26-15.74,13.55-8,6.28-14.21,13.74-16.58,23.9a32.93,32.93,0,0,0,1.34,18.79,6.77,6.77,0,0,1,.76,3c-6.3-7.33-10.41-15.68-10.91-25.41-.59-11.62,4.84-20.69,12.92-28.46a87.41,87.41,0,0,1,9.53-7.62c8.68-6.28,15.46-14,18.42-24.59a35.66,35.66,0,0,0,.72-15.64c.31-.63.67-.05,1,0A34.62,34.62,0,0,1,172.85,105.53Z" transform="translate(-81.08 -81.06)"/></svg>